<mxfile host="app.diagrams.net" agent="Mozilla/5.0 (Windows NT 10.0; Win64; x64) AppleWebKit/537.36 (KHTML, like Gecko) Chrome/130.0.0.0 Safari/537.36 Edg/130.0.0.0" version="24.8.6">
  <diagram name="PÃ¡gina-1" id="U-jmiU2zZvKzGz_igBES">
    <mxGraphModel dx="1426" dy="-80" grid="1" gridSize="10" guides="1" tooltips="1" connect="1" arrows="1" fold="1" page="1" pageScale="1" pageWidth="1169" pageHeight="827" math="0" shadow="0">
      <root>
        <mxCell id="0" />
        <mxCell id="1" parent="0" />
        <mxCell id="naUPp0g4tdBPMXGIVgXv-1" value="" style="edgeStyle=orthogonalEdgeStyle;rounded=0;orthogonalLoop=1;jettySize=auto;html=1;fillColor=#f0a30a;strokeColor=#BD7000;strokeWidth=2;endArrow=block;endFill=1;" edge="1" parent="1" source="naUPp0g4tdBPMXGIVgXv-2" target="naUPp0g4tdBPMXGIVgXv-7">
          <mxGeometry relative="1" as="geometry" />
        </mxCell>
        <mxCell id="naUPp0g4tdBPMXGIVgXv-2" value="API Gateway" style="rounded=0;whiteSpace=wrap;html=1;fontStyle=1;" vertex="1" parent="1">
          <mxGeometry x="160.06" y="956" width="90" height="40" as="geometry" />
        </mxCell>
        <mxCell id="naUPp0g4tdBPMXGIVgXv-87" value="" style="edgeStyle=orthogonalEdgeStyle;rounded=0;orthogonalLoop=1;jettySize=auto;html=1;fillColor=#d5e8d4;strokeColor=#82b366;strokeWidth=2;endArrow=block;endFill=1;" edge="1" parent="1" source="naUPp0g4tdBPMXGIVgXv-4" target="naUPp0g4tdBPMXGIVgXv-86">
          <mxGeometry relative="1" as="geometry" />
        </mxCell>
        <mxCell id="naUPp0g4tdBPMXGIVgXv-4" value="Client" style="shape=actor;whiteSpace=wrap;html=1;verticalAlign=bottom;labelPosition=center;verticalLabelPosition=top;align=center;fillColor=#f5f5f5;fontColor=#333333;strokeColor=#666666;fontStyle=1" vertex="1" parent="1">
          <mxGeometry x="50" y="856" width="40" height="60" as="geometry" />
        </mxCell>
        <mxCell id="naUPp0g4tdBPMXGIVgXv-5" value="" style="edgeStyle=orthogonalEdgeStyle;rounded=0;orthogonalLoop=1;jettySize=auto;html=1;fillColor=#d5e8d4;strokeColor=#82b366;strokeWidth=2;endArrow=block;endFill=1;" edge="1" parent="1" source="naUPp0g4tdBPMXGIVgXv-7" target="naUPp0g4tdBPMXGIVgXv-12">
          <mxGeometry relative="1" as="geometry" />
        </mxCell>
        <mxCell id="naUPp0g4tdBPMXGIVgXv-6" value="" style="edgeStyle=orthogonalEdgeStyle;rounded=0;orthogonalLoop=1;jettySize=auto;html=1;fillColor=#e51400;strokeColor=#B20000;strokeWidth=2;endArrow=cross;endFill=0;" edge="1" parent="1" source="naUPp0g4tdBPMXGIVgXv-7" target="naUPp0g4tdBPMXGIVgXv-13">
          <mxGeometry relative="1" as="geometry" />
        </mxCell>
        <mxCell id="naUPp0g4tdBPMXGIVgXv-7" value="Succeess?" style="rhombus;whiteSpace=wrap;html=1;shadow=0;fontFamily=Helvetica;fontSize=12;align=center;strokeWidth=1;spacing=6;spacingTop=-4;fillColor=#fff2cc;strokeColor=#d6b656;fontStyle=1" vertex="1" parent="1">
          <mxGeometry x="162.56" y="1036" width="85" height="70" as="geometry" />
        </mxCell>
        <mxCell id="naUPp0g4tdBPMXGIVgXv-8" value="" style="edgeStyle=orthogonalEdgeStyle;rounded=0;orthogonalLoop=1;jettySize=auto;html=1;fillColor=#f0a30a;strokeColor=#BD7000;strokeWidth=2;endArrow=block;endFill=1;" edge="1" parent="1" source="naUPp0g4tdBPMXGIVgXv-12" target="naUPp0g4tdBPMXGIVgXv-18">
          <mxGeometry relative="1" as="geometry" />
        </mxCell>
        <mxCell id="naUPp0g4tdBPMXGIVgXv-9" style="edgeStyle=orthogonalEdgeStyle;rounded=0;orthogonalLoop=1;jettySize=auto;html=1;entryX=0;entryY=0.5;entryDx=0;entryDy=0;fillColor=#e1d5e7;strokeColor=#9673a6;strokeWidth=2;dashed=1;endArrow=block;endFill=1;" edge="1" parent="1" source="naUPp0g4tdBPMXGIVgXv-12" target="naUPp0g4tdBPMXGIVgXv-21">
          <mxGeometry relative="1" as="geometry">
            <Array as="points">
              <mxPoint x="30" y="1176" />
              <mxPoint x="30" y="1376" />
            </Array>
          </mxGeometry>
        </mxCell>
        <mxCell id="naUPp0g4tdBPMXGIVgXv-11" style="edgeStyle=orthogonalEdgeStyle;rounded=0;orthogonalLoop=1;jettySize=auto;html=1;entryX=0.5;entryY=0;entryDx=0;entryDy=0;fillColor=#e1d5e7;strokeColor=#9673a6;dashed=1;strokeWidth=2;endArrow=block;endFill=1;" edge="1" parent="1" source="naUPp0g4tdBPMXGIVgXv-12" target="naUPp0g4tdBPMXGIVgXv-73">
          <mxGeometry relative="1" as="geometry">
            <Array as="points">
              <mxPoint x="954" y="1190" />
            </Array>
          </mxGeometry>
        </mxCell>
        <mxCell id="naUPp0g4tdBPMXGIVgXv-12" value="Pix System" style="shape=cube;whiteSpace=wrap;html=1;boundedLbl=1;backgroundOutline=1;darkOpacity=0.05;darkOpacity2=0.1;fontStyle=1;fillColor=#dae8fc;strokeColor=#6c8ebf;" vertex="1" parent="1">
          <mxGeometry x="160" y="1146" width="90.06" height="59" as="geometry" />
        </mxCell>
        <mxCell id="naUPp0g4tdBPMXGIVgXv-13" value="Throw Error" style="rounded=0;whiteSpace=wrap;html=1;fontStyle=1;fillColor=#f8cecc;strokeColor=#b85450;" vertex="1" parent="1">
          <mxGeometry x="285" y="1051" width="90" height="40" as="geometry" />
        </mxCell>
        <mxCell id="naUPp0g4tdBPMXGIVgXv-14" value="&lt;span style=&quot;color: rgb(0, 0, 0); font-family: Helvetica; font-size: 11px; font-style: normal; font-variant-ligatures: normal; font-variant-caps: normal; letter-spacing: normal; orphans: 2; text-align: center; text-indent: 0px; text-transform: none; widows: 2; word-spacing: 0px; -webkit-text-stroke-width: 0px; white-space: nowrap; background-color: rgb(251, 251, 251); text-decoration-thickness: initial; text-decoration-style: initial; text-decoration-color: initial; float: none; display: inline !important;&quot;&gt;Yes&lt;/span&gt;" style="text;whiteSpace=wrap;html=1;fontStyle=0" vertex="1" parent="1">
          <mxGeometry x="175.06" y="1106" width="50" height="40" as="geometry" />
        </mxCell>
        <mxCell id="naUPp0g4tdBPMXGIVgXv-15" value="&lt;span style=&quot;color: rgb(0, 0, 0); font-family: Helvetica; font-size: 11px; font-style: normal; font-variant-ligatures: normal; font-variant-caps: normal; letter-spacing: normal; orphans: 2; text-align: center; text-indent: 0px; text-transform: none; widows: 2; word-spacing: 0px; -webkit-text-stroke-width: 0px; white-space: nowrap; background-color: rgb(251, 251, 251); text-decoration-thickness: initial; text-decoration-style: initial; text-decoration-color: initial; float: none; display: inline !important;&quot;&gt;No&lt;/span&gt;" style="text;whiteSpace=wrap;html=1;fontStyle=0" vertex="1" parent="1">
          <mxGeometry x="250.06" y="1036" width="50" height="40" as="geometry" />
        </mxCell>
        <mxCell id="naUPp0g4tdBPMXGIVgXv-16" value="" style="edgeStyle=orthogonalEdgeStyle;rounded=0;orthogonalLoop=1;jettySize=auto;html=1;fillColor=#e51400;strokeColor=#B20000;strokeWidth=2;endArrow=cross;endFill=0;" edge="1" parent="1" source="naUPp0g4tdBPMXGIVgXv-18" target="naUPp0g4tdBPMXGIVgXv-19">
          <mxGeometry relative="1" as="geometry" />
        </mxCell>
        <mxCell id="naUPp0g4tdBPMXGIVgXv-17" value="" style="edgeStyle=orthogonalEdgeStyle;rounded=0;orthogonalLoop=1;jettySize=auto;html=1;fillColor=#d5e8d4;strokeColor=#82b366;strokeWidth=2;endArrow=block;endFill=1;" edge="1" parent="1" source="naUPp0g4tdBPMXGIVgXv-18" target="naUPp0g4tdBPMXGIVgXv-21">
          <mxGeometry relative="1" as="geometry" />
        </mxCell>
        <mxCell id="naUPp0g4tdBPMXGIVgXv-18" value="Pix key is valid?" style="rhombus;whiteSpace=wrap;html=1;shadow=0;fontFamily=Helvetica;fontSize=12;align=center;strokeWidth=1;spacing=6;spacingTop=-4;fillColor=#fff2cc;strokeColor=#d6b656;fontStyle=1" vertex="1" parent="1">
          <mxGeometry x="162.53" y="1246" width="85" height="70" as="geometry" />
        </mxCell>
        <mxCell id="naUPp0g4tdBPMXGIVgXv-19" value="Throw Error" style="rounded=0;whiteSpace=wrap;html=1;fontStyle=1;fillColor=#f8cecc;strokeColor=#b85450;" vertex="1" parent="1">
          <mxGeometry x="285.06" y="1261" width="90" height="40" as="geometry" />
        </mxCell>
        <mxCell id="naUPp0g4tdBPMXGIVgXv-20" value="" style="edgeStyle=orthogonalEdgeStyle;rounded=0;orthogonalLoop=1;jettySize=auto;html=1;fillColor=#f0a30a;strokeColor=#BD7000;strokeWidth=2;endArrow=block;endFill=1;" edge="1" parent="1" source="naUPp0g4tdBPMXGIVgXv-21" target="naUPp0g4tdBPMXGIVgXv-24">
          <mxGeometry relative="1" as="geometry" />
        </mxCell>
        <mxCell id="naUPp0g4tdBPMXGIVgXv-21" value="Moria (Authorizer)" style="rounded=0;whiteSpace=wrap;html=1;fontStyle=1;" vertex="1" parent="1">
          <mxGeometry x="160.06" y="1356" width="90" height="40" as="geometry" />
        </mxCell>
        <mxCell id="naUPp0g4tdBPMXGIVgXv-22" value="" style="edgeStyle=orthogonalEdgeStyle;rounded=0;orthogonalLoop=1;jettySize=auto;html=1;fillColor=#f0a30a;strokeColor=#BD7000;strokeWidth=2;endArrow=block;endFill=1;" edge="1" parent="1" source="naUPp0g4tdBPMXGIVgXv-24" target="naUPp0g4tdBPMXGIVgXv-27">
          <mxGeometry relative="1" as="geometry" />
        </mxCell>
        <mxCell id="naUPp0g4tdBPMXGIVgXv-23" value="" style="edgeStyle=orthogonalEdgeStyle;rounded=0;orthogonalLoop=1;jettySize=auto;html=1;fillColor=#d5e8d4;strokeColor=#82b366;strokeWidth=2;endArrow=block;endFill=1;" edge="1" parent="1" source="naUPp0g4tdBPMXGIVgXv-24" target="naUPp0g4tdBPMXGIVgXv-29">
          <mxGeometry relative="1" as="geometry" />
        </mxCell>
        <mxCell id="naUPp0g4tdBPMXGIVgXv-24" value="Is valid?" style="rhombus;whiteSpace=wrap;html=1;shadow=0;fontFamily=Helvetica;fontSize=12;align=center;strokeWidth=1;spacing=6;spacingTop=-4;fillColor=#fff2cc;strokeColor=#d6b656;fontStyle=1" vertex="1" parent="1">
          <mxGeometry x="290.06" y="1341" width="85" height="70" as="geometry" />
        </mxCell>
        <mxCell id="naUPp0g4tdBPMXGIVgXv-25" value="" style="edgeStyle=orthogonalEdgeStyle;rounded=0;orthogonalLoop=1;jettySize=auto;html=1;fillColor=#e51400;strokeColor=#B20000;strokeWidth=2;endArrow=cross;endFill=0;" edge="1" parent="1" source="naUPp0g4tdBPMXGIVgXv-27" target="naUPp0g4tdBPMXGIVgXv-32">
          <mxGeometry relative="1" as="geometry" />
        </mxCell>
        <mxCell id="naUPp0g4tdBPMXGIVgXv-26" value="" style="edgeStyle=orthogonalEdgeStyle;rounded=0;orthogonalLoop=1;jettySize=auto;html=1;fillColor=#f0a30a;strokeColor=#BD7000;strokeWidth=2;endArrow=block;endFill=1;" edge="1" parent="1" source="naUPp0g4tdBPMXGIVgXv-27" target="naUPp0g4tdBPMXGIVgXv-37">
          <mxGeometry relative="1" as="geometry" />
        </mxCell>
        <mxCell id="naUPp0g4tdBPMXGIVgXv-27" value="AML/AF error?" style="rhombus;whiteSpace=wrap;html=1;shadow=0;fontFamily=Helvetica;fontSize=12;align=center;strokeWidth=1;spacing=6;spacingTop=-4;fillColor=#fff2cc;strokeColor=#d6b656;fontStyle=1" vertex="1" parent="1">
          <mxGeometry x="290.06" y="1456" width="85" height="70" as="geometry" />
        </mxCell>
        <mxCell id="naUPp0g4tdBPMXGIVgXv-28" value="" style="edgeStyle=orthogonalEdgeStyle;rounded=0;orthogonalLoop=1;jettySize=auto;html=1;fillColor=#d5e8d4;strokeColor=#82b366;strokeWidth=2;endArrow=block;endFill=1;" edge="1" parent="1" source="naUPp0g4tdBPMXGIVgXv-29" target="naUPp0g4tdBPMXGIVgXv-46">
          <mxGeometry relative="1" as="geometry" />
        </mxCell>
        <mxCell id="naUPp0g4tdBPMXGIVgXv-29" value="Queue (SQS)" style="strokeWidth=1;html=1;shape=mxgraph.flowchart.sequential_data;whiteSpace=wrap;fontStyle=1;fillColor=#eeeeee;strokeColor=#36393d;" vertex="1" parent="1">
          <mxGeometry x="415.06" y="1341" width="75" height="70" as="geometry" />
        </mxCell>
        <mxCell id="naUPp0g4tdBPMXGIVgXv-30" value="&lt;span style=&quot;color: rgb(0, 0, 0); font-family: Helvetica; font-size: 11px; font-style: normal; font-variant-ligatures: normal; font-variant-caps: normal; letter-spacing: normal; orphans: 2; text-align: center; text-indent: 0px; text-transform: none; widows: 2; word-spacing: 0px; -webkit-text-stroke-width: 0px; white-space: nowrap; background-color: rgb(251, 251, 251); text-decoration-thickness: initial; text-decoration-style: initial; text-decoration-color: initial; float: none; display: inline !important;&quot;&gt;Yes&lt;/span&gt;" style="text;whiteSpace=wrap;html=1;fontStyle=0" vertex="1" parent="1">
          <mxGeometry x="175.06" y="1316" width="50" height="40" as="geometry" />
        </mxCell>
        <mxCell id="naUPp0g4tdBPMXGIVgXv-31" value="&lt;span style=&quot;color: rgb(0, 0, 0); font-family: Helvetica; font-size: 11px; font-style: normal; font-variant-ligatures: normal; font-variant-caps: normal; letter-spacing: normal; orphans: 2; text-align: center; text-indent: 0px; text-transform: none; widows: 2; word-spacing: 0px; -webkit-text-stroke-width: 0px; white-space: nowrap; background-color: rgb(251, 251, 251); text-decoration-thickness: initial; text-decoration-style: initial; text-decoration-color: initial; float: none; display: inline !important;&quot;&gt;No&lt;/span&gt;" style="text;whiteSpace=wrap;html=1;fontStyle=0" vertex="1" parent="1">
          <mxGeometry x="247.56" y="1246" width="50" height="40" as="geometry" />
        </mxCell>
        <mxCell id="naUPp0g4tdBPMXGIVgXv-32" value="Throw Error" style="rounded=0;whiteSpace=wrap;html=1;fontStyle=1;fillColor=#f8cecc;strokeColor=#b85450;" vertex="1" parent="1">
          <mxGeometry x="160.06" y="1471" width="90" height="40" as="geometry" />
        </mxCell>
        <mxCell id="naUPp0g4tdBPMXGIVgXv-33" value="&lt;span style=&quot;color: rgb(0, 0, 0); font-family: Helvetica; font-size: 11px; font-style: normal; font-variant-ligatures: normal; font-variant-caps: normal; letter-spacing: normal; orphans: 2; text-align: center; text-indent: 0px; text-transform: none; widows: 2; word-spacing: 0px; -webkit-text-stroke-width: 0px; white-space: nowrap; background-color: rgb(251, 251, 251); text-decoration-thickness: initial; text-decoration-style: initial; text-decoration-color: initial; float: none; display: inline !important;&quot;&gt;No&lt;/span&gt;" style="text;whiteSpace=wrap;html=1;fontStyle=0" vertex="1" parent="1">
          <mxGeometry x="255.06" y="1456" width="50" height="40" as="geometry" />
        </mxCell>
        <mxCell id="naUPp0g4tdBPMXGIVgXv-34" value="&lt;span style=&quot;color: rgb(0, 0, 0); font-family: Helvetica; font-size: 11px; font-style: normal; font-variant-ligatures: normal; font-variant-caps: normal; letter-spacing: normal; orphans: 2; text-align: center; text-indent: 0px; text-transform: none; widows: 2; word-spacing: 0px; -webkit-text-stroke-width: 0px; white-space: nowrap; background-color: rgb(251, 251, 251); text-decoration-thickness: initial; text-decoration-style: initial; text-decoration-color: initial; float: none; display: inline !important;&quot;&gt;Yes&lt;/span&gt;" style="text;whiteSpace=wrap;html=1;fontStyle=0" vertex="1" parent="1">
          <mxGeometry x="375" y="1346" width="50" height="40" as="geometry" />
        </mxCell>
        <mxCell id="naUPp0g4tdBPMXGIVgXv-35" value="&lt;span style=&quot;color: rgb(0, 0, 0); font-family: Helvetica; font-size: 11px; font-style: normal; font-variant-ligatures: normal; font-variant-caps: normal; letter-spacing: normal; orphans: 2; text-align: center; text-indent: 0px; text-transform: none; widows: 2; word-spacing: 0px; -webkit-text-stroke-width: 0px; white-space: nowrap; background-color: rgb(251, 251, 251); text-decoration-thickness: initial; text-decoration-style: initial; text-decoration-color: initial; float: none; display: inline !important;&quot;&gt;No&lt;/span&gt;" style="text;whiteSpace=wrap;html=1;fontStyle=0" vertex="1" parent="1">
          <mxGeometry x="305" y="1416" width="50" height="40" as="geometry" />
        </mxCell>
        <mxCell id="naUPp0g4tdBPMXGIVgXv-36" value="" style="edgeStyle=orthogonalEdgeStyle;rounded=0;orthogonalLoop=1;jettySize=auto;html=1;fillColor=#f0a30a;strokeColor=#BD7000;strokeWidth=2;endArrow=block;endFill=1;" edge="1" parent="1" source="naUPp0g4tdBPMXGIVgXv-37" target="naUPp0g4tdBPMXGIVgXv-40">
          <mxGeometry relative="1" as="geometry" />
        </mxCell>
        <mxCell id="naUPp0g4tdBPMXGIVgXv-37" value="Throw Error/Send to Quarentine" style="rounded=0;whiteSpace=wrap;html=1;fontStyle=1;fillColor=#f8cecc;strokeColor=#b85450;" vertex="1" parent="1">
          <mxGeometry x="287.56" y="1566" width="90" height="60" as="geometry" />
        </mxCell>
        <mxCell id="naUPp0g4tdBPMXGIVgXv-38" value="&lt;span style=&quot;color: rgb(0, 0, 0); font-family: Helvetica; font-size: 11px; font-style: normal; font-variant-ligatures: normal; font-variant-caps: normal; letter-spacing: normal; orphans: 2; text-align: center; text-indent: 0px; text-transform: none; widows: 2; word-spacing: 0px; -webkit-text-stroke-width: 0px; white-space: nowrap; background-color: rgb(251, 251, 251); text-decoration-thickness: initial; text-decoration-style: initial; text-decoration-color: initial; float: none; display: inline !important;&quot;&gt;Yes&lt;/span&gt;" style="text;whiteSpace=wrap;html=1;fontStyle=0" vertex="1" parent="1">
          <mxGeometry x="305.06" y="1526" width="50" height="40" as="geometry" />
        </mxCell>
        <mxCell id="naUPp0g4tdBPMXGIVgXv-39" value="" style="edgeStyle=orthogonalEdgeStyle;rounded=0;orthogonalLoop=1;jettySize=auto;html=1;fillColor=#d5e8d4;strokeColor=#82b366;strokeWidth=2;endArrow=block;endFill=1;" edge="1" parent="1" source="naUPp0g4tdBPMXGIVgXv-40" target="naUPp0g4tdBPMXGIVgXv-43">
          <mxGeometry relative="1" as="geometry" />
        </mxCell>
        <mxCell id="naUPp0g4tdBPMXGIVgXv-40" value="Quarentine" style="rounded=0;whiteSpace=wrap;html=1;fontStyle=1;" vertex="1" parent="1">
          <mxGeometry x="407.56" y="1576" width="90" height="40" as="geometry" />
        </mxCell>
        <mxCell id="naUPp0g4tdBPMXGIVgXv-41" value="" style="edgeStyle=orthogonalEdgeStyle;rounded=0;orthogonalLoop=1;jettySize=auto;html=1;entryX=0.5;entryY=1;entryDx=0;entryDy=0;entryPerimeter=0;fillColor=#d5e8d4;strokeColor=#82b366;strokeWidth=2;endArrow=block;endFill=1;" edge="1" parent="1" source="naUPp0g4tdBPMXGIVgXv-43" target="naUPp0g4tdBPMXGIVgXv-29">
          <mxGeometry relative="1" as="geometry" />
        </mxCell>
        <mxCell id="naUPp0g4tdBPMXGIVgXv-42" value="" style="edgeStyle=orthogonalEdgeStyle;rounded=0;orthogonalLoop=1;jettySize=auto;html=1;fillColor=#e51400;strokeColor=#B20000;strokeWidth=2;endArrow=cross;endFill=0;" edge="1" parent="1" source="naUPp0g4tdBPMXGIVgXv-43" target="naUPp0g4tdBPMXGIVgXv-44">
          <mxGeometry relative="1" as="geometry" />
        </mxCell>
        <mxCell id="naUPp0g4tdBPMXGIVgXv-43" value="Authorized?" style="rhombus;whiteSpace=wrap;html=1;shadow=0;fontFamily=Helvetica;fontSize=12;align=center;strokeWidth=1;spacing=6;spacingTop=-4;fillColor=#fff2cc;strokeColor=#d6b656;fontStyle=1" vertex="1" parent="1">
          <mxGeometry x="410.06" y="1466" width="85" height="70" as="geometry" />
        </mxCell>
        <mxCell id="naUPp0g4tdBPMXGIVgXv-44" value="Throw Error" style="rounded=0;whiteSpace=wrap;html=1;fontStyle=1;fillColor=#f8cecc;strokeColor=#b85450;" vertex="1" parent="1">
          <mxGeometry x="535.06" y="1481" width="90" height="40" as="geometry" />
        </mxCell>
        <mxCell id="naUPp0g4tdBPMXGIVgXv-45" value="" style="edgeStyle=orthogonalEdgeStyle;rounded=0;orthogonalLoop=1;jettySize=auto;html=1;fillColor=#f0a30a;strokeColor=#BD7000;strokeWidth=2;endArrow=block;endFill=1;" edge="1" parent="1" source="naUPp0g4tdBPMXGIVgXv-46" target="naUPp0g4tdBPMXGIVgXv-49">
          <mxGeometry relative="1" as="geometry" />
        </mxCell>
        <mxCell id="naUPp0g4tdBPMXGIVgXv-46" value="Ledger" style="shape=cube;whiteSpace=wrap;html=1;boundedLbl=1;backgroundOutline=1;darkOpacity=0.05;darkOpacity2=0.1;fontStyle=1;fillColor=#dae8fc;strokeColor=#6c8ebf;" vertex="1" parent="1">
          <mxGeometry x="535" y="1346.5" width="90.06" height="59" as="geometry" />
        </mxCell>
        <mxCell id="naUPp0g4tdBPMXGIVgXv-47" value="" style="edgeStyle=orthogonalEdgeStyle;rounded=0;orthogonalLoop=1;jettySize=auto;html=1;fillColor=#e51400;strokeColor=#B20000;strokeWidth=2;endArrow=cross;endFill=0;" edge="1" parent="1" source="naUPp0g4tdBPMXGIVgXv-49" target="naUPp0g4tdBPMXGIVgXv-50">
          <mxGeometry relative="1" as="geometry" />
        </mxCell>
        <mxCell id="naUPp0g4tdBPMXGIVgXv-48" value="" style="edgeStyle=orthogonalEdgeStyle;rounded=0;orthogonalLoop=1;jettySize=auto;html=1;fillColor=#d5e8d4;strokeColor=#82b366;strokeWidth=2;endArrow=block;endFill=1;" edge="1" parent="1" source="naUPp0g4tdBPMXGIVgXv-49" target="naUPp0g4tdBPMXGIVgXv-52">
          <mxGeometry relative="1" as="geometry" />
        </mxCell>
        <mxCell id="naUPp0g4tdBPMXGIVgXv-49" value="Client exists?" style="rhombus;whiteSpace=wrap;html=1;shadow=0;fontFamily=Helvetica;fontSize=12;align=center;strokeWidth=1;spacing=6;spacingTop=-4;fillColor=#fff2cc;strokeColor=#d6b656;fontStyle=1" vertex="1" parent="1">
          <mxGeometry x="667.06" y="1341" width="85" height="70" as="geometry" />
        </mxCell>
        <mxCell id="naUPp0g4tdBPMXGIVgXv-50" value="Throw Error" style="rounded=0;whiteSpace=wrap;html=1;fontStyle=1;fillColor=#f8cecc;strokeColor=#b85450;" vertex="1" parent="1">
          <mxGeometry x="664.56" y="1441" width="90" height="40" as="geometry" />
        </mxCell>
        <mxCell id="naUPp0g4tdBPMXGIVgXv-51" value="" style="edgeStyle=orthogonalEdgeStyle;rounded=0;orthogonalLoop=1;jettySize=auto;html=1;fillColor=#f0a30a;strokeColor=#BD7000;strokeWidth=2;endArrow=block;endFill=1;" edge="1" parent="1" source="naUPp0g4tdBPMXGIVgXv-52" target="naUPp0g4tdBPMXGIVgXv-65">
          <mxGeometry relative="1" as="geometry" />
        </mxCell>
        <mxCell id="naUPp0g4tdBPMXGIVgXv-52" value="Transaction API" style="rounded=0;whiteSpace=wrap;html=1;fontStyle=1;" vertex="1" parent="1">
          <mxGeometry x="784.06" y="1356" width="90" height="40" as="geometry" />
        </mxCell>
        <mxCell id="naUPp0g4tdBPMXGIVgXv-53" style="edgeStyle=orthogonalEdgeStyle;rounded=0;orthogonalLoop=1;jettySize=auto;html=1;entryX=0;entryY=0;entryDx=35.03;entryDy=0;entryPerimeter=0;fillColor=#e1d5e7;strokeColor=#9673a6;strokeWidth=2;endArrow=block;endFill=1;dashed=1;" edge="1" parent="1" source="naUPp0g4tdBPMXGIVgXv-12" target="naUPp0g4tdBPMXGIVgXv-46">
          <mxGeometry relative="1" as="geometry">
            <Array as="points">
              <mxPoint x="570.06" y="1196" />
            </Array>
          </mxGeometry>
        </mxCell>
        <mxCell id="naUPp0g4tdBPMXGIVgXv-54" value="" style="endArrow=classic;html=1;rounded=0;fillColor=#e1d5e7;strokeColor=#9673a6;dashed=1;strokeWidth=2;fontSize=13;align=right;fontStyle=0" edge="1" parent="1">
          <mxGeometry width="50" height="50" relative="1" as="geometry">
            <mxPoint x="720.06" y="871.21" as="sourcePoint" />
            <mxPoint x="776.06" y="871" as="targetPoint" />
          </mxGeometry>
        </mxCell>
        <mxCell id="naUPp0g4tdBPMXGIVgXv-55" value="Return" style="text;html=1;align=right;verticalAlign=middle;whiteSpace=wrap;rounded=0;fontSize=13;fontStyle=0" vertex="1" parent="1">
          <mxGeometry x="655.06" y="856" width="60" height="30" as="geometry" />
        </mxCell>
        <mxCell id="naUPp0g4tdBPMXGIVgXv-56" value="" style="edgeStyle=orthogonalEdgeStyle;rounded=0;orthogonalLoop=1;jettySize=auto;html=1;endArrow=cross;endFill=0;fillColor=#f8cecc;strokeColor=#b85450;strokeWidth=2;fontSize=13;align=right;fontStyle=0" edge="1" parent="1">
          <mxGeometry relative="1" as="geometry">
            <mxPoint x="720.06" y="901" as="sourcePoint" />
            <mxPoint x="776.06" y="901" as="targetPoint" />
          </mxGeometry>
        </mxCell>
        <mxCell id="naUPp0g4tdBPMXGIVgXv-57" value="" style="edgeStyle=orthogonalEdgeStyle;rounded=0;orthogonalLoop=1;jettySize=auto;html=1;endArrow=block;endFill=1;fillColor=#d5e8d4;strokeColor=#82b366;strokeWidth=2;fontSize=13;align=right;fontStyle=0" edge="1" parent="1">
          <mxGeometry relative="1" as="geometry">
            <mxPoint x="720.06" y="931" as="sourcePoint" />
            <mxPoint x="776.06" y="931" as="targetPoint" />
          </mxGeometry>
        </mxCell>
        <mxCell id="naUPp0g4tdBPMXGIVgXv-58" value="" style="edgeStyle=orthogonalEdgeStyle;rounded=0;orthogonalLoop=1;jettySize=auto;html=1;endArrow=block;endFill=1;fillColor=#f0a30a;strokeColor=#BD7000;strokeWidth=2;fontSize=13;align=right;fontStyle=0" edge="1" parent="1">
          <mxGeometry relative="1" as="geometry">
            <mxPoint x="720.06" y="961" as="sourcePoint" />
            <mxPoint x="776.06" y="961" as="targetPoint" />
          </mxGeometry>
        </mxCell>
        <mxCell id="naUPp0g4tdBPMXGIVgXv-59" value="Status: Bloqued" style="text;html=1;align=right;verticalAlign=middle;whiteSpace=wrap;rounded=0;fontSize=13;fontStyle=0" vertex="1" parent="1">
          <mxGeometry x="611.06" y="886" width="104" height="30" as="geometry" />
        </mxCell>
        <mxCell id="naUPp0g4tdBPMXGIVgXv-60" value="Status: Success" style="text;html=1;align=right;verticalAlign=middle;whiteSpace=wrap;rounded=0;fontSize=13;fontStyle=0" vertex="1" parent="1">
          <mxGeometry x="596.06" y="916" width="119" height="30" as="geometry" />
        </mxCell>
        <mxCell id="naUPp0g4tdBPMXGIVgXv-61" value="Status: Pending" style="text;html=1;align=right;verticalAlign=middle;whiteSpace=wrap;rounded=0;fontSize=13;fontStyle=0" vertex="1" parent="1">
          <mxGeometry x="595.06" y="946" width="119" height="30" as="geometry" />
        </mxCell>
        <mxCell id="naUPp0g4tdBPMXGIVgXv-62" value="Pix System will send back the success transaction info to the Ledger" style="text;html=1;align=center;verticalAlign=middle;whiteSpace=wrap;rounded=0;fontStyle=0" vertex="1" parent="1">
          <mxGeometry x="405.06" y="1197" width="160" height="49" as="geometry" />
        </mxCell>
        <mxCell id="naUPp0g4tdBPMXGIVgXv-63" value="" style="edgeStyle=orthogonalEdgeStyle;rounded=0;orthogonalLoop=1;jettySize=auto;html=1;fillColor=#e51400;strokeColor=#B20000;strokeWidth=2;endArrow=cross;endFill=0;" edge="1" parent="1" source="naUPp0g4tdBPMXGIVgXv-65" target="naUPp0g4tdBPMXGIVgXv-70">
          <mxGeometry relative="1" as="geometry" />
        </mxCell>
        <mxCell id="naUPp0g4tdBPMXGIVgXv-64" value="" style="edgeStyle=orthogonalEdgeStyle;rounded=0;orthogonalLoop=1;jettySize=auto;html=1;fillColor=#d5e8d4;strokeColor=#82b366;strokeWidth=2;endArrow=block;endFill=1;" edge="1" parent="1" source="naUPp0g4tdBPMXGIVgXv-65" target="naUPp0g4tdBPMXGIVgXv-73">
          <mxGeometry relative="1" as="geometry" />
        </mxCell>
        <mxCell id="naUPp0g4tdBPMXGIVgXv-65" value="Success?" style="rhombus;whiteSpace=wrap;html=1;shadow=0;fontFamily=Helvetica;fontSize=12;align=center;strokeWidth=1;spacing=6;spacingTop=-4;fillColor=#fff2cc;strokeColor=#d6b656;fontStyle=1" vertex="1" parent="1">
          <mxGeometry x="786.56" y="1426" width="85" height="70" as="geometry" />
        </mxCell>
        <mxCell id="naUPp0g4tdBPMXGIVgXv-66" value="&lt;span style=&quot;color: rgb(0, 0, 0); font-family: Helvetica; font-size: 11px; font-style: normal; font-variant-ligatures: normal; font-variant-caps: normal; letter-spacing: normal; orphans: 2; text-align: center; text-indent: 0px; text-transform: none; widows: 2; word-spacing: 0px; -webkit-text-stroke-width: 0px; white-space: nowrap; background-color: rgb(251, 251, 251); text-decoration-thickness: initial; text-decoration-style: initial; text-decoration-color: initial; float: none; display: inline !important;&quot;&gt;Yes&lt;/span&gt;" style="text;whiteSpace=wrap;html=1;fontStyle=0" vertex="1" parent="1">
          <mxGeometry x="425" y="1441" width="50" height="40" as="geometry" />
        </mxCell>
        <mxCell id="naUPp0g4tdBPMXGIVgXv-67" value="&lt;span style=&quot;color: rgb(0, 0, 0); font-family: Helvetica; font-size: 11px; font-style: normal; font-variant-ligatures: normal; font-variant-caps: normal; letter-spacing: normal; orphans: 2; text-align: center; text-indent: 0px; text-transform: none; widows: 2; word-spacing: 0px; -webkit-text-stroke-width: 0px; white-space: nowrap; background-color: rgb(251, 251, 251); text-decoration-thickness: initial; text-decoration-style: initial; text-decoration-color: initial; float: none; display: inline !important;&quot;&gt;No&lt;/span&gt;" style="text;whiteSpace=wrap;html=1;fontStyle=0" vertex="1" parent="1">
          <mxGeometry x="495.06" y="1496" width="50" height="40" as="geometry" />
        </mxCell>
        <mxCell id="naUPp0g4tdBPMXGIVgXv-68" value="&lt;span style=&quot;color: rgb(0, 0, 0); font-family: Helvetica; font-size: 11px; font-style: normal; font-variant-ligatures: normal; font-variant-caps: normal; letter-spacing: normal; orphans: 2; text-align: center; text-indent: 0px; text-transform: none; widows: 2; word-spacing: 0px; -webkit-text-stroke-width: 0px; white-space: nowrap; background-color: rgb(251, 251, 251); text-decoration-thickness: initial; text-decoration-style: initial; text-decoration-color: initial; float: none; display: inline !important;&quot;&gt;No&lt;/span&gt;" style="text;whiteSpace=wrap;html=1;fontStyle=0" vertex="1" parent="1">
          <mxGeometry x="685.06" y="1411" width="50" height="40" as="geometry" />
        </mxCell>
        <mxCell id="naUPp0g4tdBPMXGIVgXv-69" value="&lt;span style=&quot;color: rgb(0, 0, 0); font-family: Helvetica; font-size: 11px; font-style: normal; font-variant-ligatures: normal; font-variant-caps: normal; letter-spacing: normal; orphans: 2; text-align: center; text-indent: 0px; text-transform: none; widows: 2; word-spacing: 0px; -webkit-text-stroke-width: 0px; white-space: nowrap; background-color: rgb(251, 251, 251); text-decoration-thickness: initial; text-decoration-style: initial; text-decoration-color: initial; float: none; display: inline !important;&quot;&gt;Yes&lt;/span&gt;" style="text;whiteSpace=wrap;html=1;fontStyle=0" vertex="1" parent="1">
          <mxGeometry x="749.06" y="1346" width="50" height="40" as="geometry" />
        </mxCell>
        <mxCell id="naUPp0g4tdBPMXGIVgXv-70" value="Throw Error" style="rounded=0;whiteSpace=wrap;html=1;fontStyle=1;fillColor=#f8cecc;strokeColor=#b85450;" vertex="1" parent="1">
          <mxGeometry x="784.06" y="1526" width="90" height="40" as="geometry" />
        </mxCell>
        <mxCell id="naUPp0g4tdBPMXGIVgXv-71" value="&lt;span style=&quot;color: rgb(0, 0, 0); font-family: Helvetica; font-size: 11px; font-style: normal; font-variant-ligatures: normal; font-variant-caps: normal; letter-spacing: normal; orphans: 2; text-align: center; text-indent: 0px; text-transform: none; widows: 2; word-spacing: 0px; -webkit-text-stroke-width: 0px; white-space: nowrap; background-color: rgb(251, 251, 251); text-decoration-thickness: initial; text-decoration-style: initial; text-decoration-color: initial; float: none; display: inline !important;&quot;&gt;No&lt;/span&gt;" style="text;whiteSpace=wrap;html=1;fontStyle=0" vertex="1" parent="1">
          <mxGeometry x="804.06" y="1496" width="50" height="40" as="geometry" />
        </mxCell>
        <mxCell id="naUPp0g4tdBPMXGIVgXv-72" value="" style="edgeStyle=orthogonalEdgeStyle;rounded=0;orthogonalLoop=1;jettySize=auto;html=1;fillColor=#f0a30a;strokeColor=#BD7000;strokeWidth=2;endArrow=block;endFill=1;" edge="1" parent="1" source="naUPp0g4tdBPMXGIVgXv-73" target="naUPp0g4tdBPMXGIVgXv-76">
          <mxGeometry relative="1" as="geometry" />
        </mxCell>
        <mxCell id="naUPp0g4tdBPMXGIVgXv-73" value="Partner" style="shape=actor;whiteSpace=wrap;html=1;verticalAlign=top;labelPosition=center;verticalLabelPosition=bottom;align=center;fillColor=#f5f5f5;fontColor=#333333;strokeColor=#666666;fontStyle=1" vertex="1" parent="1">
          <mxGeometry x="934.06" y="1431" width="40" height="60" as="geometry" />
        </mxCell>
        <mxCell id="naUPp0g4tdBPMXGIVgXv-74" value="" style="edgeStyle=orthogonalEdgeStyle;rounded=0;orthogonalLoop=1;jettySize=auto;html=1;fillColor=#e51400;strokeColor=#B20000;strokeWidth=2;endArrow=cross;endFill=0;" edge="1" parent="1" source="naUPp0g4tdBPMXGIVgXv-76" target="naUPp0g4tdBPMXGIVgXv-77">
          <mxGeometry relative="1" as="geometry" />
        </mxCell>
        <mxCell id="naUPp0g4tdBPMXGIVgXv-75" value="" style="edgeStyle=orthogonalEdgeStyle;rounded=0;orthogonalLoop=1;jettySize=auto;html=1;fillColor=#d5e8d4;strokeColor=#82b366;strokeWidth=2;endArrow=block;endFill=1;" edge="1" parent="1" source="naUPp0g4tdBPMXGIVgXv-76" target="naUPp0g4tdBPMXGIVgXv-80">
          <mxGeometry relative="1" as="geometry" />
        </mxCell>
        <mxCell id="naUPp0g4tdBPMXGIVgXv-76" value="Transaction ok?" style="rhombus;whiteSpace=wrap;html=1;shadow=0;fontFamily=Helvetica;fontSize=12;align=center;strokeWidth=1;spacing=6;spacingTop=-4;fillColor=#fff2cc;strokeColor=#d6b656;fontStyle=1" vertex="1" parent="1">
          <mxGeometry x="1024.06" y="1426" width="85" height="70" as="geometry" />
        </mxCell>
        <mxCell id="naUPp0g4tdBPMXGIVgXv-77" value="Throw Error" style="rounded=0;whiteSpace=wrap;html=1;fontStyle=1;fillColor=#f8cecc;strokeColor=#b85450;" vertex="1" parent="1">
          <mxGeometry x="1021.56" y="1526" width="90" height="40" as="geometry" />
        </mxCell>
        <mxCell id="naUPp0g4tdBPMXGIVgXv-78" value="&lt;span style=&quot;color: rgb(0, 0, 0); font-family: Helvetica; font-size: 11px; font-style: normal; font-variant-ligatures: normal; font-variant-caps: normal; letter-spacing: normal; orphans: 2; text-align: center; text-indent: 0px; text-transform: none; widows: 2; word-spacing: 0px; -webkit-text-stroke-width: 0px; white-space: nowrap; background-color: rgb(251, 251, 251); text-decoration-thickness: initial; text-decoration-style: initial; text-decoration-color: initial; float: none; display: inline !important;&quot;&gt;Yes&lt;/span&gt;" style="text;whiteSpace=wrap;html=1;fontStyle=0" vertex="1" parent="1">
          <mxGeometry x="884.06" y="1431" width="50" height="40" as="geometry" />
        </mxCell>
        <mxCell id="naUPp0g4tdBPMXGIVgXv-79" value="&lt;span style=&quot;color: rgb(0, 0, 0); font-family: Helvetica; font-size: 11px; font-style: normal; font-variant-ligatures: normal; font-variant-caps: normal; letter-spacing: normal; orphans: 2; text-align: center; text-indent: 0px; text-transform: none; widows: 2; word-spacing: 0px; -webkit-text-stroke-width: 0px; white-space: nowrap; background-color: rgb(251, 251, 251); text-decoration-thickness: initial; text-decoration-style: initial; text-decoration-color: initial; float: none; display: inline !important;&quot;&gt;No&lt;/span&gt;" style="text;whiteSpace=wrap;html=1;fontStyle=0" vertex="1" parent="1">
          <mxGeometry x="1036.06" y="1496" width="50" height="40" as="geometry" />
        </mxCell>
        <mxCell id="naUPp0g4tdBPMXGIVgXv-80" value="Send back the information and finalize the transaction" style="rounded=0;whiteSpace=wrap;html=1;fontStyle=1;" vertex="1" parent="1">
          <mxGeometry x="1013.56" y="1316" width="106" height="70" as="geometry" />
        </mxCell>
        <mxCell id="naUPp0g4tdBPMXGIVgXv-81" value="Pix System will send back the success transaction info to Authorizer" style="text;html=1;align=center;verticalAlign=top;whiteSpace=wrap;rounded=0;fontStyle=0" vertex="1" parent="1">
          <mxGeometry x="30" y="1179.75" width="120.06" height="81.25" as="geometry" />
        </mxCell>
        <mxCell id="naUPp0g4tdBPMXGIVgXv-82" value="Pix System will send back the success transaction info to the wallet" style="text;html=1;align=center;verticalAlign=top;whiteSpace=wrap;rounded=0;fontStyle=0" vertex="1" parent="1">
          <mxGeometry x="29.94" y="1024.75" width="100.06" height="81.25" as="geometry" />
        </mxCell>
        <mxCell id="naUPp0g4tdBPMXGIVgXv-83" value="Pix System will send back the success transaction info to Partner/BCB" style="text;html=1;align=center;verticalAlign=top;whiteSpace=wrap;rounded=0;fontStyle=0" vertex="1" parent="1">
          <mxGeometry x="794.47" y="1188" width="159.06" height="53" as="geometry" />
        </mxCell>
        <mxCell id="naUPp0g4tdBPMXGIVgXv-84" style="edgeStyle=orthogonalEdgeStyle;rounded=0;orthogonalLoop=1;jettySize=auto;html=1;entryX=0;entryY=0;entryDx=90.06;entryDy=20;entryPerimeter=0;fillColor=#d5e8d4;strokeColor=#82b366;strokeWidth=2;endArrow=block;endFill=1;" edge="1" parent="1" source="naUPp0g4tdBPMXGIVgXv-80" target="naUPp0g4tdBPMXGIVgXv-12">
          <mxGeometry relative="1" as="geometry">
            <Array as="points">
              <mxPoint x="1067" y="1166" />
            </Array>
          </mxGeometry>
        </mxCell>
        <mxCell id="naUPp0g4tdBPMXGIVgXv-85" value="&lt;span style=&quot;color: rgb(0, 0, 0); font-family: Helvetica; font-size: 11px; font-style: normal; font-variant-ligatures: normal; font-variant-caps: normal; letter-spacing: normal; orphans: 2; text-align: center; text-indent: 0px; text-transform: none; widows: 2; word-spacing: 0px; -webkit-text-stroke-width: 0px; white-space: nowrap; background-color: rgb(251, 251, 251); text-decoration-thickness: initial; text-decoration-style: initial; text-decoration-color: initial; float: none; display: inline !important;&quot;&gt;Yes&lt;/span&gt;" style="text;whiteSpace=wrap;html=1;fontStyle=0" vertex="1" parent="1">
          <mxGeometry x="1036.06" y="1396" width="50" height="40" as="geometry" />
        </mxCell>
        <mxCell id="naUPp0g4tdBPMXGIVgXv-90" value="" style="edgeStyle=orthogonalEdgeStyle;rounded=0;orthogonalLoop=1;jettySize=auto;html=1;fillColor=#d5e8d4;strokeColor=#82b366;strokeWidth=2;endArrow=block;endFill=1;" edge="1" parent="1" source="naUPp0g4tdBPMXGIVgXv-86" target="naUPp0g4tdBPMXGIVgXv-2">
          <mxGeometry relative="1" as="geometry" />
        </mxCell>
        <mxCell id="naUPp0g4tdBPMXGIVgXv-86" value="Wallet" style="rounded=0;whiteSpace=wrap;html=1;fontStyle=1;" vertex="1" parent="1">
          <mxGeometry x="160.06" y="866" width="90" height="40" as="geometry" />
        </mxCell>
        <mxCell id="naUPp0g4tdBPMXGIVgXv-92" style="edgeStyle=orthogonalEdgeStyle;rounded=0;orthogonalLoop=1;jettySize=auto;html=1;entryX=0.155;entryY=1.1;entryDx=0;entryDy=0;entryPerimeter=0;fillColor=#e1d5e7;strokeColor=#9673a6;strokeWidth=2;endArrow=block;endFill=1;dashed=1;" edge="1" parent="1" source="naUPp0g4tdBPMXGIVgXv-12" target="naUPp0g4tdBPMXGIVgXv-86">
          <mxGeometry relative="1" as="geometry">
            <Array as="points">
              <mxPoint x="30" y="1160" />
              <mxPoint x="30" y="1026" />
              <mxPoint x="120" y="1026" />
              <mxPoint x="120" y="930" />
              <mxPoint x="174" y="930" />
            </Array>
          </mxGeometry>
        </mxCell>
      </root>
    </mxGraphModel>
  </diagram>
</mxfile>
